<svg xmlns="http://www.w3.org/2000/svg" version="1.1" xmlns:xlink="http://www.w3.org/1999/xlink" width="200" height="200"><svg xmlns="http://www.w3.org/2000/svg" version="1.1" xmlns:xlink="http://www.w3.org/1999/xlink" viewBox="0 0 200 200"><rect width="200" height="200" fill="url('#gradient')"></rect><defs><linearGradient id="SvgjsLinearGradient1001" gradientTransform="rotate(45 0.5 0.5)"><stop offset="0%" stop-color="#d2bd87"></stop><stop offset="100%" stop-color="#c98622"></stop></linearGradient></defs><g><g fill="#f74d1b" transform="matrix(3.575557710960233,0,0,3.575557710960233,7.589981407256644,125.4264722531797)" stroke="#0f8ea0" stroke-width="0"><path d="M9.17-4.81L12.58-4.81Q12.51-3.33 11.78-2.19Q11.04-1.05 9.72-0.43Q8.40 0.20 6.70 0.20L6.70 0.20Q3.90 0.20 2.29-1.63Q0.67-3.46 0.67-6.79L0.67-6.79L0.67-7.49Q0.67-9.58 1.40-11.15Q2.13-12.71 3.50-13.57Q4.86-14.42 6.66-14.42L6.66-14.42Q9.25-14.42 10.82-13.06Q12.39-11.70 12.61-9.31L12.61-9.31L9.19-9.31Q9.15-10.61 8.54-11.17Q7.92-11.74 6.66-11.74L6.66-11.74Q5.38-11.74 4.79-10.78Q4.19-9.82 4.16-7.72L4.16-7.72L4.16-6.72Q4.16-4.44 4.73-3.47Q5.30-2.49 6.70-2.49L6.70-2.49Q7.88-2.49 8.51-3.05Q9.13-3.60 9.17-4.81L9.17-4.81ZM17.85-14.22L17.85 0L14.43 0L14.43-14.22L17.85-14.22ZM22.93-14.22L25.75-3.87L28.58-14.22L32.41-14.22L27.63 0L23.88 0L19.13-14.22L22.93-14.22ZM37.10-14.22L37.10 0L33.68 0L33.68-14.22L37.10-14.22ZM47.58-4.81L50.99-4.81Q50.92-3.33 50.19-2.19Q49.45-1.05 48.13-0.43Q46.81 0.20 45.11 0.20L45.11 0.20Q42.30 0.20 40.69-1.63Q39.08-3.46 39.08-6.79L39.08-6.79L39.08-7.49Q39.08-9.58 39.81-11.15Q40.54-12.71 41.90-13.57Q43.27-14.42 45.07-14.42L45.07-14.42Q47.66-14.42 49.23-13.06Q50.80-11.70 51.02-9.31L51.02-9.31L47.60-9.31Q47.56-10.61 46.94-11.17Q46.33-11.74 45.07-11.74L45.07-11.74Q43.79-11.74 43.19-10.78Q42.60-9.82 42.57-7.72L42.57-7.72L42.57-6.72Q42.57-4.44 43.14-3.47Q43.71-2.49 45.11-2.49L45.11-2.49Q46.29-2.49 46.91-3.05Q47.54-3.60 47.58-4.81L47.58-4.81Z"></path></g></g></svg><style>@media (prefers-color-scheme: light) { :root { filter: none; } }
@media (prefers-color-scheme: dark) { :root { filter: none; } }
</style></svg>